#!OML:ASF F:\VICON\USERDATA\INSTALL\rory3\rory3.ASF
:FULLY-SPECIFIED
:DEGREES
48
root 0.574485930567985 17.90758492377519 32.514672206889294 -3.2582427995087055 0.2541040046870564 -7.863528783320358
lfemur -20.788157436421535 -2.0277666077422807 -14.500218571301485
ltibia 24.109845720805502
lfoot -6.783028838295384 0.15357795620339876
ltoes -11.18117713951408
rfemur 0.9803066281263231 5.625806165811536 31.526776377843415
rtibia 39.52828952230417
rfoot -0.1748046114758104 -11.257446378604673
rtoes 7.834836644960864
lowerback 1.0 1.9767574563480919 6.725850649633186
upperback 0.3330772527651262 3.6499855181724046 2.0651249966487333
thorax -4.809907278784095 1.7295217260180364 -1.5980902330433118
lowerneck -16.606820345326557 -3.3003500048618184 -1.4669679561495128
upperneck 21.114990080334547 -4.290187946611366 0.9241982527434757
head 9.584641548762688 -2.0249539640476524 -0.016499435842282445
lclavicle -1.0839901746971571e-15 -4.274422448165365e-16
lhumerus -36.30180085716171 3.714248355095953 84.43970549472971
lradius 24.81020248726682
lwrist 7.468704378464855
lhand -27.138033291990233 23.304055707318376
lfingers nan
lthumb -0.8492680192457251 52.89231706606109
rclavicle -1.0874537950573177e-15 -4.462754586653473e-16
rhumerus -25.371061342746778 -12.94460130761452 -77.47574872392455
rradius 29.557138704326086
rwrist 5.25398838050724
rhand -17.362387421452226 1.0
rfingers nan
rthumb 9.111991586807996 -7.107702686668872
49
root 0.6152735879818277 17.942151980529825 33.10956868498365 -3.1806835763460217 0.9251194848111415 -6.989237194241195
lfemur -19.03147620949276 -2.4972728281589442 -16.090959878703238
ltibia 21.634485458134115
lfoot -5.395210798473251 -1.2209145432876918
ltoes -11.26682420113642
rfemur -0.4963095438096907 4.7519716253255755 30.10164673002727
rtibia 43.185784619895045
rfoot -0.8039233355789888 -11.349646357747938
rtoes 8.012494123670228
lowerback 1.0 1.7840265988050485 6.153323787233667
upperback 0.2886731510196142 3.3916304646722555 1.99359298989642
thorax -4.79624212512781 1.578563312319119 -1.6823762613864535
lowerneck -16.581314511981752 -3.3156050315379653 -1.5099866142127472
upperneck 21.255691209425382 -4.321074896128366 0.9989953127029073
head 9.626219600925916 -2.0364731304012755 0.008309723836445349
lclavicle -1.0833145035128442e-15 -4.2676259702877806e-16
lhumerus -36.14832527197769 3.7589254068551012 84.27636385100155
lradius 25.436676722492653
lwrist 7.17827133000212
lhand -27.12267862268706 23.410366279885007
lfingers nan
lthumb -0.8387840835938188 52.98063455910785
rclavicle -1.0865128607875574e-15 -4.455531171323584e-16
rhumerus -25.571099284336604 -12.465226385167087 -78.05363798861866
rradius 29.326919944934673
rwrist 6.09472434902063
rhand -17.331115612225712 1.0
rfingers nan
rthumb 9.175544690650144 -6.967661800171868
50
root 0.6857072911589678 17.981124674412534 34.6977633571345 -3.0995662994947764 1.847571079900857 -5.771945003366927
lfemur -16.734744659514217 -3.140355189731992 -18.26478046121336
ltibia 20.672607951466137
lfoot -5.013799371215151 -2.5539819732435025
ltoes -9.943730457102422
rfemur -3.1720520616972454 3.3702542807717446 27.711910932546555
rtibia 47.951185667591886
rfoot -1.6900032922139419 -10.728278581916197
rtoes 8.230072731350754
lowerback 1.0 1.5687582478557536 5.491446090009964
upperback 0.251795800061709 3.07496283214042 1.893924571326294
thorax -4.7801084976171655 1.4522473931406328 -1.5656532045537457
lowerneck -16.60591306726507 -3.319868065195972 -1.513385522271351
upperneck 21.305216069724967 -4.328238760086373 1.1049725356570477
head 9.646038480611349 -2.0375340749600137 0.05222158268122573
lclavicle -1.0823270136311776e-15 -4.2599730433824575e-16
lhumerus -35.68646688034883 3.4051110840869248 84.17890611445543
lradius 26.072998401208608
lwrist 6.881596990024891
lhand -27.068436718768062 23.576442312617573
lfingers nan
lthumb -0.7308023564361298 53.23916026282313
rclavicle -1.0831808061311566e-15 -4.4329538999455377e-16
rhumerus -25.82485187009543 -12.40174664411741 -78.6929842513166
rradius 28.896819317620068
rwrist 5.794111106959959
rhand -17.33752278060343 1.0
rfingers nan
rthumb 9.194473629895063 -7.0274593920836566
51
root 0.7339245904746095 18.000125181617552 36.44357397931682 -3.0785559891919587 2.4038796931510733 -3.565114311739138
lfemur -13.993704173110372 -3.8384331280855557 -21.099487061010226
ltibia 20.192733375974928
lfoot -4.313789382316572 -3.0979076555904395
ltoes -9.554825898386442
rfemur -5.632662794129001 2.2586388179274155 24.910648329489458
rtibia 52.72069848950058
rfoot -2.852984131129629 -9.583811925206831
rtoes 8.551231786448113
lowerback 1.0 1.1149356736084397 3.7868113590282553
upperback 0.2203811092284722 2.2432681936023346 1.4944601262517865
thorax -4.813871277088239 1.1159527258141273 -0.9938470593528683
lowerneck -16.69002553140091 -3.2822398105980906 -1.454680165434133
upperneck 21.321434772747267 -4.282819967940628 1.1812738256486566
head 9.653294931932642 -2.0197804220782762 0.09622999022984183
lclavicle -1.077760283361383e-15 -4.2137052545789065e-16
lhumerus -34.93713819400784 2.7573117339061435 84.14582031754377
lradius 26.732575523647753
lwrist 6.63972869187409
lhand -27.10134209785322 23.55372626665588
lfingers nan
lthumb -0.728828340536849 53.26468014423917
rclavicle -1.0860548140447219e-15 -4.440543233812886e-16
rhumerus -26.144075117608327 -12.754019135437915 -79.33933396415387
rradius 28.347061938031413
rwrist 5.228950087819147
rhand -17.371590806553847 1.0
rfingers nan
rthumb 9.168906947453081 -7.29498742845008
